<?xml version="1.0" encoding="UTF-8" standalone="no"?> <svg xmlns="http://www.w3.org/2000/svg" viewBox="0 0 64 64"><title>dress, clothes, clothing, fashion, women, </title><g id="Flat"><rect x="24" y="2" width="2" height="8.058" style="fill:#d11c7b"/><rect x="38" y="2" width="2" height="8.058" style="fill:#d11c7b"/><rect x="27" y="22" width="10" height="5" style="fill:#d11c7b"/><path d="M41,9v8.39A5.608,5.608,0,0,1,35.39,23H28.61A5.6,5.6,0,0,1,23,17.39V9a17.2,17.2,0,0,1,2,.63,14.917,14.917,0,0,1,4,2.3A17.519,17.519,0,0,1,32,15a20.463,20.463,0,0,1,3.98-3.72c.01-.01.01-.02.02-.02a13.979,13.979,0,0,1,4-1.99C40.33,9.16,40.66,9.08,41,9Z" style="fill:#ed4f9b"/><path d="M53,57a56.469,56.469,0,0,1-42,0c0-.01.01-.02.01-.03A154.381,154.381,0,0,1,27,27H37A156.858,156.858,0,0,1,53,57Z" style="fill:#ed4f9b"/><path d="M37,29.5C37,44.69,25.81,57,12,57q-.5,0-.99-.03A154.381,154.381,0,0,1,27,27h9.89C36.97,27.82,37,28.66,37,29.5Z" style="fill:#f467b1"/><path d="M36,12a11,11,0,0,1-8.88,10.8A5.607,5.607,0,0,1,23,17.39V9a17.2,17.2,0,0,1,2,.63,14.917,14.917,0,0,1,4,2.3A17.519,17.519,0,0,1,32,15a20.463,20.463,0,0,1,3.98-3.72C35.99,11.52,36,11.76,36,12Z" style="fill:#f467b1"/></g></svg>